<?xml version="1.0" standalone="no"?>
<!DOCTYPE svg PUBLIC "-//W3C//DTD SVG 20010904//EN"
 "http://www.w3.org/TR/2001/REC-SVG-20010904/DTD/svg10.dtd">
<svg version="1.0" xmlns="http://www.w3.org/2000/svg"
 width="512.000000pt" height="512.000000pt" viewBox="0 0 512.000000 512.000000"
 preserveAspectRatio="xMidYMid meet">
<metadata>
Created by potrace 1.14, written by Peter Selinger 2001-2017
</metadata>
<g transform="translate(0.000000,512.000000) scale(0.100000,-0.100000)"
fill="#000000" stroke="none">
<path d="M447 5106 c-87 -31 -150 -98 -171 -180 -8 -30 -11 -728 -11 -2382 l0
-2339 24 -49 c30 -61 72 -102 136 -132 l50 -24 2095 3 2095 2 40 22 c80 44
122 97 140 178 8 36 11 701 10 2380 l-2 2330 -21 46 c-27 57 -69 102 -124 131
l-43 23 -2090 2 c-1737 2 -2096 0 -2128 -11z"/>
</g>
</svg>
